<svg xmlns="http://www.w3.org/2000/svg" id="Capa_1" style="enable-background:new 0 0 430.117 430.118;" viewBox="0 0 430.117 430.118" x="0px" y="0px" width="430.117px" height="430.118px" xmlns:xlink="http://www.w3.org/1999/xlink" version="1.1" xmlns:xml="http://www.w3.org/XML/1998/namespace" xml:space="preserve">
<g>
	<path id="LinkedIn__x28_alt_x29_" style="fill: #0077b5;" d="M 398.355 0 H 31.782 C 14.229 0 0.002 13.793 0.002 30.817 v 368.471 c 0 17.025 14.232 30.83 31.78 30.83 h 366.573 c 17.549 0 31.76 -13.814 31.76 -30.83 V 30.817 C 430.115 13.798 415.904 0 398.355 0 Z M 130.4 360.038 H 65.413 V 165.845 H 130.4 V 360.038 Z M 97.913 139.315 h -0.437 c -21.793 0 -35.92 -14.904 -35.92 -33.563 c 0 -19.035 14.542 -33.535 36.767 -33.535 c 22.227 0 35.899 14.496 36.331 33.535 C 134.654 124.415 120.555 139.315 97.913 139.315 Z M 364.659 360.038 h -64.966 V 256.138 c 0 -26.107 -9.413 -43.921 -32.907 -43.921 c -17.973 0 -28.642 12.018 -33.327 23.621 c -1.736 4.144 -2.166 9.94 -2.166 15.728 v 108.468 h -64.954 c 0 0 0.85 -175.979 0 -194.192 h 64.964 v 27.531 c 8.624 -13.229 24.035 -32.1 58.534 -32.1 c 42.76 0 74.822 27.739 74.822 87.414 V 360.038 Z M 230.883 193.99 c 0.111 -0.182 0.266 -0.401 0.42 -0.614 v 0.614 H 230.883 Z" />
</g>
<g>
</g>
<g>
</g>
<g>
</g>
<g>
</g>
<g>
</g>
<g>
</g>
<g>
</g>
<g>
</g>
<g>
</g>
<g>
</g>
<g>
</g>
<g>
</g>
<g>
</g>
<g>
</g>
<g>
</g>
</svg>