<?xml version="1.0" encoding="utf-8"?>
<!-- Generator: Adobe Illustrator 22.1.0, SVG Export Plug-In . SVG Version: 6.00 Build 0)  -->
<svg version="1.1" id="Capa_1" xmlns:xml="http://www.w3.org/XML/1998/namespace"
	 xmlns="http://www.w3.org/2000/svg" xmlns:xlink="http://www.w3.org/1999/xlink" x="0px" y="0px" viewBox="0 0 484.9 484.9"
	 style="enable-background:new 0 0 484.9 484.9;" xml:space="preserve">
<style type="text/css">
	.st0{fill:#FFFFFF;}
</style>
<rect x="0.5" y="0.5" width="484.5" height="484.5"/>
<g>
	<g>
		<path class="st0" d="M405.5,344.5l-27.1-27.6c-2.8-2.8-7.2-3.2-10.4-0.9l-118.2,87L208,383.4l36.7-4.1c4-0.5,7.1-3.9,7-8v-34.6
			c0-4.4-3.6-8-8-8h-40l-67.4-6.9c-1.4-0.1-2.7,0.1-4,0.6l-45.9,19.7H0v16h88.2c1.1,0,2.2-0.2,3.2-0.6l45.5-19.9l65.7,6.7h33.5v19.8
			l-29.6,3.7l-43-4.6c-3.9-0.4-7.4,2.1-8.5,5.8c-1,3.7,0.7,7.7,4.2,9.4l88.7,40.8c2.6,1.2,5.7,0.9,8-0.8L372.2,333l16,16.6
			L254.6,466.5h-36.2L90.8,419.1c-0.9-0.4-1.8-0.5-2.8-0.6H0v16h86.6L214.2,482c0.9,0.3,1.8,0.5,2.8,0.5h40.6c1.9,0,3.8-0.7,5.3-2
			l142.2-124.3c0.1-0.1,0.3-0.2,0.4-0.4C408.6,352.7,408.6,347.7,405.5,344.5z"/>
	</g>
</g>
</svg>
