<?xml version="1.0" encoding="utf-8"?>
<!-- Generator: Adobe Illustrator 22.1.0, SVG Export Plug-In . SVG Version: 6.00 Build 0)  -->
<svg version="1.1" id="레이어_1" xmlns="http://www.w3.org/2000/svg" xmlns:xlink="http://www.w3.org/1999/xlink" x="0px"
	 y="0px" viewBox="0 0 1000 700" style="enable-background:new 0 0 1000 700;" xml:space="preserve">
<style type="text/css">
	.st0{fill:#040000;}
	.st1{fill:none;stroke:#040000;stroke-width:11;stroke-miterlimit:10;}
	.st2{fill:none;stroke:#040000;stroke-width:6;stroke-miterlimit:10;}
</style>
<path class="st0" d="M519.5,398.8c0,2.7-2.2,4.9-4.9,4.9h-29.3c-2.7,0-4.9-2.2-4.9-4.9s2.2-4.9,4.9-4.9h29.3
	C517.3,393.9,519.5,396.1,519.5,398.8z M514.6,408.5h-29.3c-2.7,0-4.9,2.2-4.9,4.9s2.2,4.9,4.9,4.9c0,5.4,4.4,9.8,9.8,9.8h9.8
	c5.4,0,9.8-4.4,9.8-9.8c2.7,0,4.9-2.2,4.9-4.9S517.3,408.5,514.6,408.5z M500,281.8c21.5,0,39,17.5,39,39c0,13.9-7.3,26.5-19.5,33.6
	l-4.8,2.8v5.6v16.5h-29.3v-16.5v-5.6l-4.8-2.8c-12.2-7.1-19.5-19.7-19.5-33.6C461,299.3,478.5,281.8,500,281.8 M500,272
	c-26.9,0-48.8,21.8-48.8,48.8c0,18,9.9,33.5,24.4,42v16.5c0,5.4,4.4,9.8,9.8,9.8h29.3c5.4,0,9.8-4.4,9.8-9.8v-16.5
	c14.5-8.4,24.4-24,24.4-42C548.8,293.8,526.9,272,500,272L500,272z"/>
<path class="st0" d="M282.8,210.9c0,1.2-1,2.2-2.2,2.2h-13.1c-1.2,0-2.2-1-2.2-2.2s1-2.2,2.2-2.2h13.1
	C281.8,208.7,282.8,209.7,282.8,210.9z M280.6,215.3h-13.1c-1.2,0-2.2,1-2.2,2.2s1,2.2,2.2,2.2c0,2.4,2,4.4,4.4,4.4h4.4
	c2.4,0,4.4-2,4.4-4.4c1.2,0,2.2-1,2.2-2.2S281.8,215.3,280.6,215.3z M274,158.4c9.7,0,17.5,7.9,17.5,17.5c0,6.2-3.3,11.9-8.8,15.1
	l-2.2,1.3v2.5v7.4h-13.1v-7.4v-2.5l-2.2-1.3c-5.5-3.2-8.8-8.8-8.8-15.1C256.5,166.2,264.4,158.4,274,158.4 M274,154
	c-12.1,0-21.9,9.8-21.9,21.9c0,8.1,4.4,15,10.9,18.8v7.4c0,2.4,2,4.4,4.4,4.4h13.1c2.4,0,4.4-2,4.4-4.4v-7.4
	c6.5-3.8,10.9-10.8,10.9-18.8C295.9,163.8,286.1,154,274,154L274,154z"/>
<path class="st0" d="M249.5,502.3c0,1.5-1.2,2.6-2.6,2.6h-15.8c-1.5,0-2.6-1.2-2.6-2.6s1.2-2.6,2.6-2.6h15.8
	C248.3,499.6,249.5,500.8,249.5,502.3z M246.9,507.5h-15.8c-1.5,0-2.6,1.2-2.6,2.6s1.2,2.6,2.6,2.6c0,2.9,2.3,5.3,5.3,5.3h5.3
	c2.9,0,5.3-2.3,5.3-5.3c1.5,0,2.6-1.2,2.6-2.6S248.3,507.5,246.9,507.5z M239,439.3c11.6,0,21,9.4,21,21c0,7.5-3.9,14.2-10.5,18.1
	l-2.6,1.5v3v8.9h-15.8v-8.9v-3l-2.6-1.5c-6.6-3.8-10.5-10.6-10.5-18.1C218,448.7,227.4,439.3,239,439.3 M239,434
	c-14.5,0-26.3,11.8-26.3,26.3c0,9.7,5.3,18.1,13.1,22.6v8.9c0,2.9,2.3,5.3,5.3,5.3h15.8c2.9,0,5.3-2.3,5.3-5.3v-8.9
	c7.8-4.5,13.1-12.9,13.1-22.6C265.3,445.8,253.5,434,239,434L239,434z"/>
<path class="st0" d="M590.5,139.8c0,1-0.8,1.9-1.9,1.9h-11.3c-1,0-1.9-0.8-1.9-1.9s0.8-1.9,1.9-1.9h11.3
	C589.7,137.9,590.5,138.7,590.5,139.8z M588.6,143.5h-11.3c-1,0-1.9,0.8-1.9,1.9s0.8,1.9,1.9,1.9c0,2.1,1.7,3.8,3.8,3.8h3.8
	c2.1,0,3.8-1.7,3.8-3.8c1,0,1.9-0.8,1.9-1.9S589.7,143.5,588.6,143.5z M583,94.8c8.3,0,15,6.7,15,15c0,5.3-2.8,10.2-7.5,12.9
	l-1.9,1.1v2.2v6.4h-11.3v-6.4v-2.2l-1.9-1.1c-4.7-2.7-7.5-7.6-7.5-12.9C568,101.5,574.7,94.8,583,94.8 M583,91
	c-10.4,0-18.8,8.4-18.8,18.8c0,6.9,3.8,12.9,9.4,16.1v6.4c0,2.1,1.7,3.8,3.8,3.8h11.3c2.1,0,3.8-1.7,3.8-3.8v-6.4
	c5.6-3.2,9.4-9.2,9.4-16.1C601.8,99.4,593.4,91,583,91L583,91z"/>
<path class="st0" d="M814,363c0,1.4-1.1,2.5-2.5,2.5h-15c-1.4,0-2.5-1.1-2.5-2.5s1.1-2.5,2.5-2.5h15C812.9,360.5,814,361.6,814,363z
	 M811.5,368h-15c-1.4,0-2.5,1.1-2.5,2.5s1.1,2.5,2.5,2.5c0,2.8,2.2,5,5,5h5c2.8,0,5-2.2,5-5c1.4,0,2.5-1.1,2.5-2.5
	S812.9,368,811.5,368z M804,303c11,0,20,9,20,20c0,7.1-3.7,13.6-10,17.2l-2.5,1.4v2.9v8.5h-15v-8.5v-2.9l-2.5-1.5
	c-6.3-3.7-10-10.1-10-17.2C784,312,793,303,804,303 M804,298c-13.8,0-25,11.2-25,25c0,9.2,5.1,17.2,12.5,21.5v8.5c0,2.8,2.2,5,5,5
	h15c2.8,0,5-2.2,5-5v-8.5c7.4-4.3,12.5-12.3,12.5-21.5C829,309.2,817.8,298,804,298L804,298z"/>
<path class="st0" d="M598,576c0,0.8-0.7,1.5-1.5,1.5h-9c-0.8,0-1.5-0.7-1.5-1.5s0.7-1.5,1.5-1.5h9C597.3,574.5,598,575.2,598,576z
	 M596.5,579h-9c-0.8,0-1.5,0.7-1.5,1.5s0.7,1.5,1.5,1.5c0,1.7,1.3,3,3,3h3c1.7,0,3-1.3,3-3c0.8,0,1.5-0.7,1.5-1.5
	S597.3,579,596.5,579z M592,540c6.6,0,12,5.4,12,12c0,4.3-2.2,8.1-6,10.3l-1.5,0.9v1.7v5.1h-9v-5.1v-1.7l-1.5-0.9
	c-3.8-2.2-6-6.1-6-10.3C580,545.4,585.4,540,592,540 M592,537c-8.3,0-15,6.7-15,15c0,5.5,3,10.3,7.5,12.9v5.1c0,1.7,1.3,3,3,3h9
	c1.7,0,3-1.3,3-3v-5.1c4.5-2.6,7.5-7.4,7.5-12.9C607,543.7,600.3,537,592,537L592,537z"/>
<circle class="st1" cx="500.5" cy="350.5" r="122"/>
<circle class="st2" cx="273.5" cy="189.5" r="68.5"/>
<circle class="st2" cx="583" cy="121" r="55"/>
<circle class="st2" cx="804" cy="338" r="68"/>
<circle class="st2" cx="592" cy="561" r="43"/>
<circle class="st2" cx="239.5" cy="475.5" r="70.5"/>
<line class="st2" x1="623" y1="351" x2="736" y2="344"/>
<line class="st2" x1="544" y1="237" x2="569" y2="174"/>
<line class="st2" x1="332" y1="225" x2="403" y2="277"/>
<line class="st2" x1="389" y1="393" x2="300" y2="439"/>
<line class="st2" x1="553" y1="460" x2="583" y2="522"/>
</svg>
